{
  "accessors": [
    {
      "bufferView": 2,
      "componentType": 5126,
      "count": 65534,
      "max": [
        355.16622924804688,
        174.34930419921875,
        -116.2821044921875
      ],
      "min": [
        105.06237030029297,
        -51.005096435546875,
        -180.61334228515625
      ],
      "type": "VEC3"
    },
    {
      "bufferView": 2,
      "byteOffset": 786408,
      "componentType": 5126,
      "count": 65534,
      "max": [
        0.99988645315170288,
        0.99998152256011963,
        0.99999445676803589
      ],
      "min": [
        -0.99989503622055054,
        -0.99995130300521851,
        -0.99999916553497314
      ],
      "type": "VEC3"
    },
    {
      "bufferView": 1,
      "componentType": 5126,
      "count": 65534,
      "max": [
        0.84429770708084106,
        0.99064916372299194
      ],
      "min": [
        0.0093508213758468628,
        0.15496975183486938
      ],
      "type": "VEC2"
    },
    {
      "bufferView": 0,
      "componentType": 5125,
      "count": 65535,
      "max": [
        65533
      ],
      "min": [
        0
      ],
      "type": "SCALAR"
    },
    {
      "bufferView": 2,
      "byteOffset": 1572816,
      "componentType": 5126,
      "count": 65533,
      "max": [
        354.98468017578125,
        174.34524536132812,
        -116.15674591064453
      ],
      "min": [
        105.06237030029297,
        -51.005096435546875,
        -176.468505859375
      ],
      "type": "VEC3"
    },
    {
      "bufferView": 2,
      "byteOffset": 2359212,
      "componentType": 5126,
      "count": 65533,
      "max": [
        0.99988532066345215,
        0.99997109174728394,
        0.99999809265136719
      ],
      "min": [
        -0.99963206052780151,
        -0.99992811679840088,
        -0.99994540214538574
      ],
      "type": "VEC3"
    },
    {
      "bufferView": 1,
      "byteOffset": 524272,
      "componentType": 5126,
      "count": 65533,
      "max": [
        0.94693940877914429,
        0.99064916372299194
      ],
      "min": [
        0.018701652064919472,
        0.016361713409423828
      ],
      "type": "VEC2"
    },
    {
      "bufferView": 0,
      "byteOffset": 262140,
      "componentType": 5125,
      "count": 65535,
      "max": [
        65532
      ],
      "min": [
        0
      ],
      "type": "SCALAR"
    },
    {
      "bufferView": 2,
      "byteOffset": 3145608,
      "componentType": 5126,
      "count": 18930,
      "max": [
        233.2513427734375,
        112.92990112304688,
        -117.54768371582031
      ],
      "min": [
        175.79949951171875,
        53.080421447753906,
        -135.19886779785156
      ],
      "type": "VEC3"
    },
    {
      "bufferView": 2,
      "byteOffset": 3372768,
      "componentType": 5126,
      "count": 18930,
      "max": [
        0.9984898567199707,
        0.99910759925842285,
        0.99981838464736938
      ],
      "min": [
        -0.99829226732254028,
        -0.9994732141494751,
        -0.92837387323379517
      ],
      "type": "VEC3"
    },
    {
      "bufferView": 1,
      "byteOffset": 1048536,
      "componentType": 5126,
      "count": 18930,
      "max": [
        0.9509432315826416,
        0.96259665489196777
      ],
      "min": [
        0.0093508306890726089,
        0.0091176629066467285
      ],
      "type": "VEC2"
    },
    {
      "bufferView": 0,
      "byteOffset": 524280,
      "componentType": 5125,
      "count": 18930,
      "max": [
        18929
      ],
      "min": [
        0
      ],
      "type": "SCALAR"
    }
  ],
  "asset": {
    "extras": {
      "author": "The Cable Center (https://sketchfab.com/thecablecenter)",
      "license": "CC0-1.0 (http://creativecommons.org/publicdomain/zero/1.0/)",
      "source": "https://sketchfab.com/3d-models/hbos-the-sopranos-tonys-macaroni-pasta-fa1d9d8dc6f644768a5dcbb8e7ab1d1f",
      "title": "HBO's The Sopranos Tony's Macaroni Pasta"
    },
    "generator": "Sketchfab-7.80.0",
    "version": "2.0"
  },
  "bufferViews": [
    {
      "buffer": 0,
      "byteLength": 600000,
      "byteOffset": 0,
      "name": "floatBufferViews",
      "target": 34963
    },
    {
      "buffer": 0,
      "byteLength": 1199976,
      "byteOffset": 600000,
      "byteStride": 8,
      "name": "floatBufferViews",
      "target": 34962
    },
    {
      "buffer": 0,
      "byteLength": 3599928,
      "byteOffset": 1799976,
      "byteStride": 12,
      "name": "floatBufferViews",
      "target": 34962
    }
  ],
  "buffers": [
    {
      "byteLength": 5399904,
      "uri": "scene.bin"
    }
  ],
  "images": [
    {
      "uri": "textures/material_0_baseColor.png"
    }
  ],
  "materials": [
    {
      "doubleSided": true,
      "emissiveFactor": [
        0,
        0,
        0
      ],
      "name": "material_0",
      "pbrMetallicRoughness": {
        "baseColorFactor": [
          1,
          1,
          1,
          1
        ],
        "baseColorTexture": {
          "index": 0,
          "texCoord": 0
        },
        "metallicFactor": 0,
        "roughnessFactor": 0.59999999999999998
      }
    }
  ],
  "meshes": [
    {
      "name": "Default_group_material_0_0",
      "primitives": [
        {
          "attributes": {
            "NORMAL": 1,
            "POSITION": 0,
            "TEXCOORD_0": 2
          },
          "indices": 3,
          "material": 0,
          "mode": 4
        }
      ]
    },
    {
      "name": "Default_group_material_0_0",
      "primitives": [
        {
          "attributes": {
            "NORMAL": 5,
            "POSITION": 4,
            "TEXCOORD_0": 6
          },
          "indices": 7,
          "material": 0,
          "mode": 4
        }
      ]
    },
    {
      "name": "Default_group_material_0_0",
      "primitives": [
        {
          "attributes": {
            "NORMAL": 9,
            "POSITION": 8,
            "TEXCOORD_0": 10
          },
          "indices": 11,
          "material": 0,
          "mode": 4
        }
      ]
    }
  ],
  "nodes": [
    {
      "children": [
        1
      ],
      "name": "RootNode (gltf orientation matrix)",
      "rotation": [
        -0.70710678118654746,
        -0,
        -0,
        0.70710678118654757
      ]
    },
    {
      "children": [
        2
      ],
      "matrix": [
        0,
        0,
        1,
        0,
        0,
        1,
        0,
        0,
        -1,
        0,
        0,
        0,
        291.78598022460938,
        0,
        -168.44198608398438,
        1
      ],
      "name": "RootNode (model correction matrix)"
    },
    {
      "children": [
        3
      ],
      "matrix": [
        1,
        0,
        0,
        0,
        0,
        0,
        1,
        0,
        0,
        -1,
        0,
        0,
        0,
        0,
        0,
        1
      ],
      "name": "Tony's Macoroni_LOD1.fbx"
    },
    {
      "children": [
        4
      ],
      "name": "RootNode"
    },
    {
      "children": [
        5,
        6,
        7
      ],
      "name": "Default_group"
    },
    {
      "mesh": 0,
      "name": "Default_group_material_0_0"
    },
    {
      "mesh": 1,
      "name": "Default_group_material_0_0"
    },
    {
      "mesh": 2,
      "name": "Default_group_material_0_0"
    }
  ],
  "samplers": [
    {
      "magFilter": 9729,
      "minFilter": 9987,
      "wrapS": 10497,
      "wrapT": 10497
    }
  ],
  "scene": 0,
  "scenes": [
    {
      "name": "OSG_Scene",
      "nodes": [
        0
      ]
    }
  ],
  "textures": [
    {
      "sampler": 0,
      "source": 0
    }
  ]
}

